<?xml version="1.0" standalone="no"?>
<!DOCTYPE svg PUBLIC "-//W3C//DTD SVG 20010904//EN"
 "http://www.w3.org/TR/2001/REC-SVG-20010904/DTD/svg10.dtd">
<svg version="1.0" xmlns="http://www.w3.org/2000/svg"
 width="512.000000pt" height="512.000000pt" viewBox="0 0 512.000000 512.000000"
 preserveAspectRatio="xMidYMid meet">
<metadata>
Created by potrace 1.16, written by Peter Selinger 2001-2019
</metadata>
<g transform="translate(0.000000,512.000000) scale(0.100000,-0.100000)"
fill="#000000" stroke="none">
<path d="M760 5097 c-167 -70 -442 -302 -601 -507 -75 -96 -100 -142 -123
-220 -52 -186 -48 -693 8 -1005 119 -658 417 -1278 890 -1850 127 -154 427
-454 581 -581 516 -426 1060 -705 1655 -848 240 -58 395 -77 663 -83 342 -8
517 12 632 69 104 53 333 259 447 404 86 108 174 248 193 305 22 66 17 207 -9
259 -10 19 -56 97 -103 172 -86 140 -132 192 -201 227 -21 11 -268 81 -548
156 -476 128 -514 137 -580 133 -117 -8 -164 -36 -333 -201 -155 -152 -194
-177 -282 -177 -80 0 -204 61 -434 215 -409 274 -776 641 -1050 1050 -154 230
-215 354 -215 434 0 88 25 127 177 282 165 169 193 216 201 333 4 66 -5 104
-133 580 -75 280 -145 527 -156 548 -35 69 -87 115 -227 201 -197 122 -193
120 -302 124 -82 3 -103 0 -150 -20z m289 -299 c64 -39 128 -83 143 -97 24
-23 43 -85 158 -512 71 -267 130 -498 130 -513 0 -22 -29 -57 -143 -175 -156
-159 -203 -232 -227 -348 -15 -69 -8 -200 14 -268 38 -122 247 -453 432 -685
139 -173 471 -505 644 -644 232 -184 538 -379 675 -427 75 -26 201 -35 278
-20 116 25 188 72 348 228 118 114 153 143 175 143 15 0 246 -59 513 -130 427
-115 489 -134 512 -158 14 -15 58 -79 97 -143 89 -145 91 -161 26 -262 -129
-200 -378 -451 -499 -503 -78 -32 -491 -47 -695 -24 -697 78 -1365 376 -1965
879 -122 102 -357 333 -469 461 -536 611 -861 1319 -937 2040 -13 128 -6 555
11 634 12 61 47 116 142 225 93 109 224 224 346 306 130 87 139 87 291 -7z"/>
</g>
</svg>
