<?xml version="1.0" standalone="no"?>
<!DOCTYPE svg PUBLIC "-//W3C//DTD SVG 20010904//EN"
 "http://www.w3.org/TR/2001/REC-SVG-20010904/DTD/svg10.dtd">
<svg version="1.0" xmlns="http://www.w3.org/2000/svg"
 width="1138.000000pt" height="188.000000pt" viewBox="0 0 1138.000000 188.000000"
 preserveAspectRatio="xMidYMid meet">
<metadata>
Created by potrace 1.16, written by Peter Selinger 2001-2019
</metadata>
<g transform="translate(0.000000,188.000000) scale(0.100000,-0.100000)"
fill="#000000" stroke="none">
<path d="M1730 986 c0 -491 3 -914 6 -940 l7 -46 3921 2 3921 3 3 938 2 937
-3930 0 -3930 0 0 -894z m2977 608 c21 -16 47 -48 58 -70 19 -37 20 -62 23
-513 2 -326 -1 -490 -8 -528 -15 -68 -65 -128 -120 -143 -26 -7 -410 -9 -1142
-8 l-1104 3 -37 25 c-20 13 -46 43 -59 65 l-23 40 0 515 c0 472 1 518 18 547
19 36 76 85 109 95 13 3 523 5 1135 5 l1111 -2 39 -31z m4276 -82 c15 -9 37
-37 50 -62 21 -44 22 -55 25 -438 4 -454 0 -486 -58 -544 -36 -37 -40 -38
-108 -38 -65 0 -74 3 -106 30 -60 53 -61 61 -61 525 0 414 0 421 22 465 24 48
49 69 98 81 39 10 103 1 138 -19z m-3446 -9 c4 -9 -46 -226 -110 -482 -65
-257 -117 -469 -117 -473 0 -4 51 -9 113 -10 l112 -3 0 -45 0 -45 -160 0 -160
0 -3 43 c-2 29 32 181 107 482 61 243 111 445 111 450 0 5 -46 11 -102 12
l-103 3 -3 28 c-7 57 -5 57 158 57 132 0 151 -2 157 -17z m643 -28 l0 -45 -95
0 -95 0 0 -200 0 -200 89 0 c82 0 90 -2 96 -21 4 -11 4 -31 1 -45 -6 -23 -9
-24 -96 -24 l-90 0 0 -202 0 -203 92 0 93 0 0 -45 0 -45 -129 -3 c-86 -2 -133
1 -142 9 -12 9 -14 99 -14 524 0 283 3 520 6 529 5 14 28 16 145 16 l139 0 0
-45z m481 -65 c15 -58 56 -217 91 -355 l63 -250 5 355 5 355 40 0 40 0 0 -535
0 -535 -34 -3 c-18 -2 -39 2 -45 8 -6 6 -50 165 -98 353 l-86 342 -1 -347 -1
-348 -24 -6 c-14 -3 -33 -4 -43 -2 -17 3 -18 29 -21 528 -1 289 0 531 3 538 3
8 18 12 42 10 l37 -3 27 -105z m832 102 c5 -7 20 -111 87 -607 59 -438 60
-446 54 -456 -3 -5 -21 -9 -40 -9 -39 0 -54 24 -54 85 0 19 -5 68 -11 110
l-11 75 -73 0 -73 0 -5 -42 c-4 -24 -9 -74 -13 -113 -9 -97 -17 -115 -51 -115
-60 0 -63 -50 57 835 20 146 31 220 35 233 5 13 90 17 98 4z m584 -47 c7 -27
49 -191 93 -364 44 -173 81 -316 83 -317 1 -1 2 163 2 364 l0 367 40 0 40 0 0
-535 0 -535 -34 -3 c-18 -2 -39 2 -45 8 -6 6 -50 165 -98 353 l-86 342 -1
-347 -1 -348 -24 -6 c-14 -3 -33 -4 -43 -2 -17 3 -18 29 -21 528 -1 289 0 531
3 538 3 9 18 12 42 10 35 -3 37 -5 50 -53z"/>
<path d="M2408 1521 l-33 -29 0 -512 0 -512 33 -29 32 -29 1100 0 1100 0 32
29 33 29 0 512 0 512 -33 29 -32 29 -1100 0 -1100 0 -32 -29z m1087 -83 c37
-17 55 -58 55 -127 0 -99 29 -91 -317 -91 l-304 0 -17 -31 -17 -30 -158 3
-159 3 -24 28 c-21 25 -24 38 -24 113 0 81 1 87 29 115 l29 29 441 0 c320 0
447 -3 466 -12z m988 -2 c90 -37 88 -168 -3 -206 -71 -29 -150 24 -150 101 0
51 13 75 53 99 38 24 57 25 100 6z m-304 -81 c16 -8 36 -31 46 -51 52 -109
-86 -207 -177 -125 -29 26 -33 35 -33 81 0 46 4 55 33 81 37 33 85 38 131 14z
m-323 -81 c69 -33 84 -129 30 -183 -22 -21 -36 -26 -77 -26 -45 0 -54 4 -80
33 -52 58 -35 147 35 178 41 17 51 17 92 -2z m-942 -169 l16 -25 304 0 c344 0
316 8 316 -90 0 -98 27 -90 -305 -90 -161 0 -301 -3 -310 -6 -9 -4 -21 -18
-26 -31 l-9 -24 -161 3 -161 3 -24 28 c-21 25 -24 38 -24 110 0 88 13 121 54
137 11 5 87 9 167 9 146 1 147 1 163 -24z m1265 -20 c36 -18 64 -76 56 -115
-15 -70 -88 -112 -149 -86 -51 22 -71 52 -71 106 0 89 83 137 164 95z m-311
-88 c13 -6 30 -24 38 -39 39 -75 -4 -156 -89 -165 -43 -5 -49 -3 -82 30 -30
30 -35 42 -35 80 0 92 81 137 168 94z m618 -103 c85 -41 84 -158 -2 -199 -73
-35 -154 19 -154 102 0 47 22 80 64 99 41 17 51 17 92 -2z m-293 -84 c36 -28
52 -81 37 -124 -15 -48 -43 -68 -98 -74 -44 -4 -53 -1 -83 26 -30 27 -34 36
-34 82 0 46 4 55 33 81 40 36 105 40 145 9z m-1275 -30 l22 -30 303 -2 302 -3
0 -82 c0 -77 -2 -84 -28 -110 l-27 -28 -456 0 -456 0 -24 28 c-21 25 -24 38
-24 113 0 81 1 87 29 115 l29 29 154 0 154 0 22 -30z m959 -56 c52 -33 56
-130 8 -171 -51 -45 -108 -42 -156 7 -53 53 -35 145 35 176 35 16 78 11 113
-12z"/>
<path d="M8841 1431 c-11 -11 -22 -39 -26 -63 -3 -24 -5 -214 -3 -423 2 -317
5 -384 18 -403 28 -42 92 -42 120 0 13 19 16 86 18 403 2 209 0 399 -3 423 -8
53 -35 82 -75 82 -16 0 -39 -9 -49 -19z"/>
<path d="M7426 1164 c-10 -93 -24 -213 -31 -267 -6 -53 -9 -99 -7 -102 3 -3
32 -5 64 -5 l60 0 -6 28 c-3 15 -17 133 -31 262 -14 129 -27 239 -28 244 -2 5
-11 -67 -21 -160z"/>
</g>
</svg>
